<svg width="54" height="23" viewBox="0 0 54 23" fill="none" xmlns="http://www.w3.org/2000/svg">
<rect x="0.5" y="0.5" width="53" height="22" rx="11" stroke="white" stroke-opacity="0.4"/>
<path d="M36 13.5C36 14.4283 36.3687 15.3186 37.0251 15.9749C37.6815 16.6313 38.5717 17 39.5 17C40.4283 17 41.3185 16.6313 41.9748 15.9749C42.6312 15.3186 43 14.4283 43 13.5V10.5C43 9.57174 42.6312 8.68153 41.9748 8.02515C41.3185 7.36877 40.4283 7 39.5 7C38.5717 7 37.6815 7.36877 37.0251 8.02515C36.3687 8.68153 36 9.57174 36 10.5V13.5Z" stroke="black" stroke-linecap="round" stroke-linejoin="round"/>
<path d="M39.5 9V11" stroke="black" stroke-linecap="round" stroke-linejoin="round"/>
<path d="M19.5544 9.72931L12.9437 16.3409C12.3534 16.9369 10.5879 17.2098 10.1869 16.8143C9.78593 16.4189 10.07 14.6532 10.6603 14.0572L17.271 7.44562C17.5763 7.15487 17.9831 6.99498 18.4046 7.00012C18.8261 7.00526 19.2289 7.17501 19.5269 7.47312C19.825 7.77122 19.9947 8.17407 19.9999 8.59562C20.005 9.01718 19.8452 9.42403 19.5544 9.72931Z" stroke="black" stroke-linecap="round" stroke-linejoin="round"/>
<rect x="0.5" y="0.5" width="53" height="22" rx="11" stroke="white" stroke-opacity="0.4"/>
<rect x="0.5" y="0.5" width="29" height="22" rx="11" stroke="#FF624D"/>
<path d="M36 13.5C36 14.4283 36.3687 15.3186 37.0251 15.9749C37.6815 16.6313 38.5717 17 39.5 17C40.4283 17 41.3185 16.6313 41.9748 15.9749C42.6312 15.3186 43 14.4283 43 13.5V10.5C43 9.57174 42.6312 8.68153 41.9748 8.02515C41.3185 7.36877 40.4283 7 39.5 7C38.5717 7 37.6815 7.36877 37.0251 8.02515C36.3687 8.68153 36 9.57174 36 10.5V13.5Z" stroke="#FBFBFB" stroke-linecap="round" stroke-linejoin="round"/>
<path d="M39.5 9V11" stroke="#FBFBFB" stroke-linecap="round" stroke-linejoin="round"/>
<path d="M19.5544 9.72931L12.9437 16.3409C12.3534 16.9369 10.5879 17.2098 10.1869 16.8143C9.78593 16.4189 10.07 14.6532 10.6603 14.0572L17.271 7.44562C17.5763 7.15487 17.9831 6.99498 18.4046 7.00012C18.8261 7.00526 19.2289 7.17501 19.5269 7.47312C19.825 7.77122 19.9947 8.17407 19.9999 8.59562C20.005 9.01718 19.8452 9.42403 19.5544 9.72931Z" stroke="#FF624D" stroke-linecap="round" stroke-linejoin="round"/>
</svg>
